<svg width="120" height="65" viewBox="0 0 120 65" fill="none" xmlns="http://www.w3.org/2000/svg">
<path fill-rule="evenodd" clip-rule="evenodd" d="M30.6988 0H31.797H91.7589H92.9129L93.3467 1.04034L119.045 62.7067L120 65H117.457H107.178H105.958L105.559 63.88L97.0623 40H84.9212L74.4916 63.9833L74.0492 65H72.9137H62.6346H60.038H59.962H57.495H47.2158H45.996L45.5968 63.88L37.1003 40H24.9593L14.5296 63.9833L14.0873 65H12.9518H2.67259H0L1.11597 62.6367L30.2404 0.970662L30.6988 0ZM26.409 36.6667H35.9145L31.637 24.6453L26.409 36.6667ZM33.416 19.4547L39.9391 37.788L48.4356 61.6667H54.9519L31.6986 5.867L5.34517 61.6667H11.8163L22.2462 37.684L30.2191 19.3507L31.957 15.3547L33.416 19.4547ZM59.3459 63.3381L36.5785 8.70466L53.3541 48.96L59.3459 63.3381L61.0779 62.6367L66.7502 50.6266L86.8249 8.12167L61.0779 62.6367L59.3459 63.3381ZM37.2288 3.33333H86.202L69.4873 25.3333V25H50.7857L37.2288 3.33333ZM52.8714 28.3333L59.3459 38.6813L67.2081 28.3333H52.8714ZM91.6606 5.867L65.3071 61.6667H71.7782L82.2082 37.684L90.1811 19.3507L91.9189 15.3547L93.3779 19.4547L99.9011 37.788L108.398 61.6667H114.914L91.6606 5.867ZM91.5989 24.6453L86.3709 36.6667H95.8764L91.5989 24.6453Z" fill="#E85D04"/>
</svg>
