<svg width="36" height="20" viewBox="0 0 36 20" fill="none" xmlns="http://www.w3.org/2000/svg">
<path fill-rule="evenodd" clip-rule="evenodd" d="M8.9595 0H9.28H26.78H27.1168L27.2434 0.312103L34.7434 18.812L35.0222 19.5H34.28H31.28H30.924L30.8075 19.164L28.3278 12H24.7844L21.7405 19.195L21.6114 19.5H21.28H18.28H17.5222H17.5H16.78H13.78H13.424L13.3075 19.164L10.8278 12H7.2844L4.2405 19.195L4.1114 19.5H3.78H0.779999H0L0.325699 18.791L8.8257 0.291199L8.9595 0ZM7.7075 11H10.4817L9.2333 7.3936L7.7075 11ZM9.7525 5.8364L11.6563 11.3364L14.136 18.5H16.0378L9.2513 1.7601L1.56 18.5H3.4486L6.4926 11.3052L8.8195 5.8052L9.3267 4.6064L9.7525 5.8364ZM17.3202 19.0014L10.6755 2.6114L15.5715 14.688L17.3202 19.0014L17.8257 18.791L19.4812 15.188L25.34 2.4365L17.8257 18.791L17.3202 19.0014ZM10.8653 1H25.1582L20.28 7.6V7.5H14.8219L10.8653 1ZM15.4306 8.5L17.3202 11.6044L19.6148 8.5H15.4306ZM26.7513 1.7601L19.06 18.5H20.9486L23.9926 11.3052L26.3195 5.8052L26.8267 4.6064L27.2525 5.8364L29.1563 11.3364L31.636 18.5H33.5378L26.7513 1.7601ZM26.7333 7.3936L25.2075 11H27.9817L26.7333 7.3936Z" fill="url(#paint0_linear_131_1162)"/>
<defs>
<linearGradient id="paint0_linear_131_1162" x1="17.5111" y1="0" x2="17.5111" y2="19.5" gradientUnits="userSpaceOnUse">
<stop stop-color="#06639D"/>
<stop offset="1" stop-color="#8D3B06"/>
</linearGradient>
</defs>
</svg>
